<svg
            id="Group_1"
            data-name="Group 1"
            xmlns="http://www.w3.org/2000/svg"
            viewBox="0 0 90 27.629"
            height="28"
            width="90"
          >
            <path
              data-name="Path 1"
              d="M13.124,6.976C12.916,5.042,11.742,3.73,8.91,3.73c-3.177,0-4.766,2.625-4.766,5.595,0,3.039,1.45,5.664,5.042,5.664,2.417,0,3.454-1.036,3.937-2.832h4.144c-.553,3.73-3.315,6.562-8.427,6.562C3.108,18.718,0,14.229,0,9.325,0,4.559,3.108,0,8.841,0c5.8,0,8.15,3.523,8.427,6.976Z"
              transform="translate(0)"
            ></path>
            <path
              data-name="Path 2"
              d="M45.487.483V18.235H41.343V15.817a6.684,6.684,0,0,1-5.526,2.832A9.067,9.067,0,0,1,26.7,9.325,9.067,9.067,0,0,1,35.817,0a6.684,6.684,0,0,1,5.526,2.832V.483ZM41.343,9.325c0-3.039-2.072-5.664-5.249-5.664-3.108,0-5.18,2.625-5.18,5.664s2.072,5.664,5.18,5.664C39.271,14.988,41.343,12.433,41.343,9.325Z"
              transform="translate(-8.258)"
            ></path>
            <path
              data-name="Path 3"
              d="M68.628,4.375a6.455,6.455,0,0,0-1.658-.138c-3.523,0-5.526,2-5.526,6.424v7.667H57.3V.576h4.144V3.408A6.418,6.418,0,0,1,66.97.3a4.18,4.18,0,0,1,1.658.276Z"
              transform="translate(-17.722 -0.093)"
            ></path>
            <path
              data-name="Path 4"
              d="M92.656,19.133c0,2.97-.9,5.111-2.556,6.493s-4.006,2-6.976,2a9.346,9.346,0,0,1-6.631-2.279,7.071,7.071,0,0,1-2.348-5.042h4.213c.207,1.934,1.727,3.592,4.766,3.592,3.315,0,5.318-1.381,5.318-4.766V15.817a6.684,6.684,0,0,1-5.526,2.832A9.067,9.067,0,0,1,73.8,9.325,9.025,9.025,0,0,1,82.917,0a6.684,6.684,0,0,1,5.526,2.832V.483h4.144ZM77.944,9.325c0,3.039,2.072,5.664,5.18,5.664,3.177,0,5.249-2.625,5.249-5.664S86.3,3.661,83.125,3.661A5.375,5.375,0,0,0,77.944,9.325Z"
              transform="translate(-22.825)"
            ></path>
            <path
              data-name="Path 5"
              d="M103.2,9.325a9.359,9.359,0,0,1,18.718,0,9.131,9.131,0,0,1-9.394,9.325A9.034,9.034,0,0,1,103.2,9.325Zm14.574,0c0-3.039-2.072-5.664-5.249-5.664-3.108,0-5.18,2.625-5.18,5.664s2.072,5.664,5.18,5.664C115.7,14.988,117.774,12.433,117.774,9.325Z"
              transform="translate(-31.918)"
            ></path>
          </svg>