<svg xmlns="http://www.w3.org/2000/svg" width="16.06" height="16.05" viewBox="1418 122 16.06 16.05"><g data-name="Group 3210"><g data-name="Path 90713"><path d="M1430.237 133.354c.059.039.133.072.187.125 1.135 1.132 2.27 2.265 3.401 3.4.29.29.311.655.067.935-.269.308-.684.317-.994.01-.712-.708-1.42-1.419-2.13-2.129l-1.438-1.444c-1.697 1.343-3.596 1.879-5.722 1.469-1.75-.338-3.162-1.245-4.228-2.668-2.139-2.855-1.753-6.805.889-9.25 2.528-2.342 6.528-2.401 9.14-.177 2.74 2.331 3.4 6.572.828 9.73Zm-5.3 1.163c3.073-.002 5.58-2.51 5.59-5.588.007-3.077-2.517-5.602-5.598-5.6-3.071.001-5.585 2.516-5.588 5.588-.004 3.085 2.513 5.603 5.596 5.6Z" fill="#fff" fill-rule="evenodd"/><path d="M1430.237 133.354c.059.039.133.072.187.125 1.135 1.132 2.27 2.265 3.401 3.4.29.29.311.655.067.935-.269.308-.684.317-.994.01-.712-.708-1.42-1.419-2.13-2.129l-1.438-1.444c-1.697 1.343-3.596 1.879-5.722 1.469-1.75-.338-3.162-1.245-4.228-2.668-2.139-2.855-1.753-6.805.889-9.25 2.528-2.342 6.528-2.401 9.14-.177 2.74 2.331 3.4 6.572.828 9.73Zm-5.3 1.163c3.073-.002 5.58-2.51 5.59-5.588.007-3.077-2.517-5.602-5.598-5.6-3.071.001-5.585 2.516-5.588 5.588-.004 3.085 2.513 5.603 5.596 5.6Z" stroke-linejoin="round" stroke-linecap="round" stroke="#fff" fill="transparent"/></g></g></svg>